<svg width="72" height="69" viewBox="0 0 72 69" fill="none" xmlns="http://www.w3.org/2000/svg">
<path d="M62.1143 35.8787L42.1991 55.2058C41.7839 55.6087 41.2208 55.8351 40.6336 55.8351C40.0464 55.8351 39.4833 55.6087 39.068 55.2058C38.6528 54.8028 38.4196 54.2563 38.4196 53.6865C38.4196 53.1166 38.6528 52.5701 39.068 52.1671L55.2076 36.5068H11.8673C11.2805 36.5068 10.7176 36.2805 10.3027 35.8778C9.88767 35.4751 9.65454 34.9289 9.65454 34.3593C9.65454 33.7898 9.88767 33.2436 10.3027 32.8408C10.7176 32.4381 11.2805 32.2119 11.8673 32.2119H55.2076L39.068 16.5515C38.6528 16.1486 38.4196 15.6021 38.4196 15.0322C38.4196 14.4623 38.6528 13.9158 39.068 13.5129C39.4833 13.1099 40.0464 12.8835 40.6336 12.8835C41.2208 12.8835 41.7839 13.1099 42.1991 13.5129L62.1143 32.84C62.32 33.0394 62.4832 33.2763 62.5946 33.537C62.7059 33.7977 62.7632 34.0771 62.7632 34.3593C62.7632 34.6415 62.7059 34.921 62.5946 35.1817C62.4832 35.4424 62.32 35.6792 62.1143 35.8787Z" fill="black"/>
</svg>
