<svg width="30" height="30" fill="none" xmlns="http://www.w3.org/2000/svg"><path d="M15 0a15 15 0 1015 15A15.018 15.018 0 0015 0zm13.206 14.118h-6.457C21.521 8.122 19.03 4.084 17.273 1.96a13.263 13.263 0 0110.933 12.158zM15 27.916a16.179 16.179 0 01-2.234-2.86 18.878 18.878 0 01-2.747-9.174h9.962a18.878 18.878 0 01-2.747 9.174A16.179 16.179 0 0115 27.916zm-4.98-13.798a18.878 18.878 0 012.746-9.174A16.175 16.175 0 0115 2.084c.85.866 1.599 1.826 2.234 2.86a18.878 18.878 0 012.747 9.174h-9.962zM12.726 1.96c-1.765 2.124-4.25 6.162-4.476 12.158H1.794A13.263 13.263 0 0112.726 1.96zM1.793 15.882h6.457c.227 5.996 2.718 10.034 4.476 12.158A13.263 13.263 0 011.793 15.882zm15.48 12.158c1.757-2.124 4.248-6.162 4.474-12.158h6.458A13.264 13.264 0 0117.273 28.04z" fill="#000"/></svg>